<svg width="16" height="16" version="1.1" viewBox="0 0 16 16" xmlns="http://www.w3.org/2000/svg">
 <path d="m7.9629 1.002c-0.14254 0.00487-0.28238 0.04016-0.41016 0.10352l-6 3c-0.33878 0.16944-0.55276 0.51574-0.55273 0.89453v6c-2.576e-5 0.37879 0.21395 0.72509 0.55273 0.89453l6 3c0.28156 0.14078 0.61297 0.14078 0.89453 0l1.5527-0.77734v-0.11719h-2v-4h1v-1.3809l4-2v1.3809h1v2h1v-5c2.6e-5 -0.37879-0.21395-0.72509-0.55273-0.89453l-6-3c-0.15022-0.074574-0.31679-0.11017-0.48438-0.10352zm0.037109 2.1172 3.7637 1.8809-1.3809 0.69141-3.7637-1.8828zm-5 3.5 4 2v3.7637l-4-2z" fill="#e0e0e0"/>
 <path d="m13 13h2v-2h-2v-2h-2v2h-2v2h2v2h2z" color="#000000" color-rendering="auto" dominant-baseline="auto" fill="#5fff97" fill-rule="evenodd" image-rendering="auto" shape-rendering="auto" solid-color="#000000" stop-color="#000000" style="font-feature-settings:normal;font-variant-alternates:normal;font-variant-caps:normal;font-variant-east-asian:normal;font-variant-ligatures:normal;font-variant-numeric:normal;font-variant-position:normal;font-variation-settings:normal;inline-size:0;isolation:auto;mix-blend-mode:normal;shape-margin:0;shape-padding:0;text-decoration-color:#000000;text-decoration-line:none;text-decoration-style:solid;text-indent:0;text-orientation:mixed;text-transform:none;white-space:normal"/>
</svg>
