<?xml version="1.0" encoding="UTF-8" standalone="no"?>
<svg
   xmlns:dc="http://purl.org/dc/elements/1.1/"
   xmlns:cc="http://creativecommons.org/ns#"
   xmlns:rdf="http://www.w3.org/1999/02/22-rdf-syntax-ns#"
   xmlns:svg="http://www.w3.org/2000/svg"
   xmlns="http://www.w3.org/2000/svg"
   xmlns:sodipodi="http://sodipodi.sourceforge.net/DTD/sodipodi-0.dtd"
   xmlns:inkscape="http://www.inkscape.org/namespaces/inkscape"
   width="64"
   height="64"
   fill="none"
   version="1.1"
   viewBox="0 0 64 64"
   id="svg4"
   sodipodi:docname="icon_sketch.svg"
   inkscape:version="1.0.2-2 (e86c870879, 2021-01-15)">
  <metadata
     id="metadata10">
    <rdf:RDF>
      <cc:Work
         rdf:about="">
        <dc:format>image/svg+xml</dc:format>
        <dc:type
           rdf:resource="http://purl.org/dc/dcmitype/StillImage" />
        <dc:title></dc:title>
      </cc:Work>
    </rdf:RDF>
  </metadata>
  <defs
     id="defs8" />
  <sodipodi:namedview
     pagecolor="#000000"
     bordercolor="#666666"
     borderopacity="1"
     objecttolerance="10"
     gridtolerance="10"
     guidetolerance="10"
     inkscape:pageopacity="0"
     inkscape:pageshadow="2"
     inkscape:window-width="1440"
     inkscape:window-height="837"
     id="namedview6"
     showgrid="false"
     inkscape:zoom="5.1908066"
     inkscape:cx="-1.3095776"
     inkscape:cy="24.138267"
     inkscape:window-x="-8"
     inkscape:window-y="-8"
     inkscape:window-maximized="1"
     inkscape:current-layer="layer2" />
  <g
     inkscape:groupmode="layer"
     id="layer1"
     inkscape:label="Circle">
    <path
       fill-rule="evenodd"
       clip-rule="evenodd"
       d="M 31.999997,63 C 49.120797,63 63.000002,49.1208 63.000002,32 63.000002,14.8792 49.120797,1.0000001 31.999997,1.0000001 14.879197,1.0000001 0.9999975,14.8792 0.9999975,32 c 0,17.1208 13.8791995,31 30.9999995,31 z m 0,-4.2759 C 46.759297,58.7241 58.724102,46.7593 58.724102,32 58.724102,17.2407 46.759297,5.2758501 31.999997,5.2758501 17.240697,5.2758501 5.2758775,17.2407 5.2758775,32 c 0,14.7593 11.9648195,26.7241 26.7241195,26.7241 z"
       fill="#ffffff"
       id="path2-0" />
  </g>
  <g
     inkscape:groupmode="layer"
     id="layer2"
     inkscape:label="Content">
    <path
       d="m 12,12 v 40 h 2 v -4 h 2 v 4 h 32 v -4 h 2 v 4 h 2 V 12 h -2 v 4 H 48 V 12 H 16 v 4 h -2 v -4 z m 2,6 h 2 v 4 h -2 z m 34,0 h 2 v 4 h -2 z m -8,2 c 6,0 6,6 6,6 -4,2 -8,2 -12,0 0,0 0,-6 6,-6 z m -4,2 v 3.0312 c 0,0.53668 0.43902,0.96876 0.98438,0.96876 h 0.03124 C 37.56098,25.99996 38,25.56792 38,25.0312 v -1.89062 z m 6,0 -2,1.14062 v 1.89062 C 40,25.56792 40.43902,26 40.98438,26 h 0.03124 C 41.56098,26 42,25.56796 42,25.03124 Z m -28,2 h 2 v 4 h -2 z m 34,0 h 2 v 4 h -2 z m -34,6 h 2 v 4 h -2 z m 34,0 h 2 v 4 h -2 z m -20,4 c 7.125,0 8,8 8,8 -2,4 -14,4 -16,0 0,0 0.875,-8 8,-8 z m -14,2 h 2 v 4 h -2 z m 34,0 h 2 v 4 h -2 z m -34,6 h 2 v 4 h -2 z m 34,0 h 2 v 4 h -2 z"
       fill="#ffffff"
       id="path2"
       style="stroke-width:1" />
  </g>
</svg>
