<svg width="64" height="64" fill="none" version="1.1" viewBox="0 0 64 64" xmlns="http://www.w3.org/2000/svg">
 <g display="none">
  <path d="m32 63c17.121 0 31-13.879 31-31s-13.879-31-31-31-31 13.879-31 31 13.879 31 31 31zm0-4.2759c14.759 0 26.724-11.965 26.724-26.724s-11.965-26.724-26.724-26.724-26.724 11.965-26.724 26.724 11.965 26.724 26.724 26.724z" clip-rule="evenodd" fill="#fff" fill-rule="evenodd"/>
 </g>
 <path d="m12 12v40h2v-4h2v4h32v-4h2v4h2v-40h-2v4h-2v-4h-32v4h-2v-4zm2 6h2v4h-2zm34 0h2v4h-2zm-8 2c6 0 6 6 6 6-4 2-8 2-12 0 0 0 0-6 6-6zm-4 2v3.0312c0 0.53668 0.43902 0.96876 0.98438 0.96876h0.03124c0.54536 0 0.98438-0.43204 0.98438-0.96876v-1.8906zm6 0-2 1.1406v1.8906c0 0.53668 0.43902 0.96876 0.98438 0.96876h0.03124c0.54536 0 0.98438-0.43204 0.98438-0.96876zm-28 2h2v4h-2zm34 0h2v4h-2zm-34 6h2v4h-2zm34 0h2v4h-2zm-20 4c7.125 0 8 8 8 8-2 4-14 4-16 0 0 0 0.875-8 8-8zm-14 2h2v4h-2zm34 0h2v4h-2zm-34 6h2v4h-2zm34 0h2v4h-2z" fill="#fff"/>
</svg>
