<?xml version="1.0" encoding="UTF-8" standalone="no"?>
<svg
   xmlns:dc="http://purl.org/dc/elements/1.1/"
   xmlns:cc="http://creativecommons.org/ns#"
   xmlns:rdf="http://www.w3.org/1999/02/22-rdf-syntax-ns#"
   xmlns:svg="http://www.w3.org/2000/svg"
   xmlns="http://www.w3.org/2000/svg"
   xmlns:sodipodi="http://sodipodi.sourceforge.net/DTD/sodipodi-0.dtd"
   xmlns:inkscape="http://www.inkscape.org/namespaces/inkscape"
   width="64"
   height="64"
   viewBox="0 0 16.933333 16.933334"
   version="1.1"
   id="svg8"
   inkscape:version="1.0.2-2 (e86c870879, 2021-01-15)"
   sodipodi:docname="splash.svg">
  <defs
     id="defs2">
    <inkscape:path-effect
       effect="spiro"
       id="path-effect832"
       is_visible="true"
       lpeversion="1" />
  </defs>
  <sodipodi:namedview
     id="base"
     pagecolor="#ffffff"
     bordercolor="#666666"
     borderopacity="1.0"
     inkscape:pageopacity="0.0"
     inkscape:pageshadow="2"
     inkscape:zoom="7.9195959"
     inkscape:cx="51.321306"
     inkscape:cy="34.060626"
     inkscape:document-units="px"
     inkscape:current-layer="svg8"
     inkscape:document-rotation="0"
     showgrid="false"
     units="px"
     inkscape:window-width="1440"
     inkscape:window-height="837"
     inkscape:window-x="-8"
     inkscape:window-y="-8"
     inkscape:window-maximized="1" />
  <metadata
     id="metadata5">
    <rdf:RDF>
      <cc:Work
         rdf:about="">
        <dc:format>image/svg+xml</dc:format>
        <dc:type
           rdf:resource="http://purl.org/dc/dcmitype/StillImage" />
        <dc:title />
      </cc:Work>
    </rdf:RDF>
  </metadata>
  <path
     style="fill:#739dff;stroke:#001f9a;stroke-width:0.264583px;stroke-linecap:butt;stroke-linejoin:miter;stroke-opacity:1;fill-opacity:1"
     d="M 9.989199,6.8153732 C 10.06459,6.1598603 10.04199,5.493163 9.9223814,4.8442603 9.8902638,4.6700145 9.849636,4.4931334 9.755338,4.34313 9.6796406,4.2227153 9.5707987,4.1237761 9.4449647,4.0574769 9.3191307,3.9911776 9.1766873,3.9574059 9.0344559,3.957445 8.749993,3.9575232 8.4726164,4.0955892 8.2853556,4.3097213 8.1628461,4.4498105 8.0774271,4.6192096 8.0163451,4.7950008 7.9552631,4.970792 7.9175426,5.1537112 7.8817623,5.3363402 7.8102017,5.7015981 7.7395662,6.082767 7.5169556,6.3810601 7.4211658,6.5094162 7.2970713,6.6195939 7.1494602,6.6817385 7.0031027,6.7433554 6.8403875,6.7554582 6.6817385,6.7485558 6.5568135,6.7431207 6.431158,6.7260853 6.3142428,6.6817385 6.1783568,6.6301959 6.0545216,6.5393343 5.9801558,6.4144688 5.9392132,6.3457233 5.9141794,6.2689379 5.8869564,6.1936972 5.8597334,6.1184566 5.8293436,6.0429103 5.7797037,5.9801558 5.7351365,5.9238143 5.6763539,5.8797436 5.6126604,5.8465211 5.5112462,5.7936235 5.396896,5.7674579 5.2825652,5.7640723 5.1682344,5.7606867 5.0538634,5.7796509 4.9444864,5.8131124 4.8232768,5.8501939 4.7068387,5.905581 4.6070615,5.983756 4.5072844,6.061931 4.4245559,6.1635262 4.3765386,6.2808341 c -0.055809,0.1363441 -0.063033,0.2870375 -0.066817,0.434313 -0.00437,0.1700024 -0.00384,0.346446 0.066817,0.5011304 0.049594,0.1085694 0.1311148,0.1996994 0.22061,0.2786769 0.089495,0.078978 0.187761,0.1473367 0.2805204,0.2224535 0.2243472,0.181677 0.417446,0.4052396 0.5458658,0.6637866 0.1284199,0.258547 0.1901728,0.5529846 0.1557166,0.8396045 -0.032111,0.2671102 -0.1456585,0.5192644 -0.2929926,0.744368 -0.147334,0.225104 -0.3282493,0.425952 -0.5088158,0.625388 -0.0375,0.04142 -0.075507,0.08353 -0.100226,0.133635 -0.039979,0.08104 -0.041588,0.175673 -0.031714,0.265495 0.00987,0.08982 0.030382,0.17869 0.031714,0.269044 9.858e-4,0.06688 -0.00855,0.134114 0,0.200452 0.013781,0.106867 0.074598,0.204027 0.154681,0.27612 0.080083,0.07209 0.1784702,0.121087 0.279632,0.158193 0.3428358,0.125751 0.7282394,0.120171 1.0751661,0.0062 0.3469268,-0.11398 0.655428,-0.332773 0.8959467,-0.607546 0.1050954,-0.120063 0.1982392,-0.25116 0.3143648,-0.360591 0.1161256,-0.10943 0.2613456,-0.197879 0.4206263,-0.207357 0.080009,-0.0048 0.1599515,0.01056 0.2372313,0.03182 0.07728,0.02126 0.1528526,0.0485 0.2304904,0.06841 0.1130289,0.02899 0.2323022,0.04317 0.334087,0.100226 0.085162,0.04774 0.1523726,0.122871 0.204578,0.20537 0.052205,0.0825 0.090608,0.172807 0.1295087,0.262352 0.1681459,0.387051 0.3627043,0.784188 0.7015827,1.03567 0.2969487,0.220366 0.671456,0.303551 1.035669,0.367495 0.118896,0.02087 0.239,0.04035 0.35964,0.03614 0.120641,-0.0042 0.243123,-0.03363 0.341943,-0.102964 0.10416,-0.07308 0.175121,-0.185377 0.223246,-0.303163 0.04813,-0.117786 0.07583,-0.242685 0.110841,-0.365011 0.05332,-0.186275 0.124804,-0.375758 0.100226,-0.567948 -0.01847,-0.144424 -0.0901,-0.276454 -0.169844,-0.398276 -0.07974,-0.121823 -0.169378,-0.238235 -0.23106,-0.370124 -0.03182,-0.06804 -0.05582,-0.139447 -0.08512,-0.208616 -0.02929,-0.06917 -0.0645,-0.136987 -0.115335,-0.192288 -0.02132,-0.02319 -0.04517,-0.04394 -0.06682,-0.06682 -0.0748,-0.07905 -0.121041,-0.181072 -0.153223,-0.2850353 -0.03218,-0.1039632 -0.05158,-0.2114424 -0.08064,-0.3163207 -0.02165,-0.078143 -0.04867,-0.1548311 -0.06682,-0.233861 -0.07419,-0.3230489 0.0048,-0.6634755 0.133635,-0.968852 0.141018,-0.3341333 0.346929,-0.6479862 0.634765,-0.8686258 0.09302,-0.071302 0.193937,-0.1324766 0.28167,-0.2101888 0.08773,-0.077712 0.163392,-0.175951 0.186052,-0.2909416 0.01512,-0.076742 0.0058,-0.1558616 0,-0.233861 -0.0051,-0.067851 -0.0078,-0.1374018 -0.03341,-0.200452 -0.02469,-0.060873 -0.06976,-0.1122126 -0.123069,-0.1506003 -0.05331,-0.038388 -0.114674,-0.064432 -0.177609,-0.083261 -0.272213,-0.081438 -0.567848,-0.029337 -0.835218,0.066817 -0.117563,0.042279 -0.23311,0.093475 -0.334087,0.1670437 -0.04502,0.032797 -0.08693,0.069887 -0.133634,0.100226 -0.136317,0.088543 -0.312066,0.1136496 -0.467722,0.066817 z"
     id="path830"
     inkscape:path-effect="#path-effect832"
     inkscape:original-d="M 9.989199,6.8153732 C 9.4294423,6.2774625 9.985815,5.4785944 9.9223814,4.8442603 9.9098666,4.7191135 9.8563708,4.4441627 9.755338,4.34313 9.3993697,3.9871617 8.6310692,3.9063889 8.2853556,4.3097213 7.77026,4.9106663 8.0936128,5.8044031 7.5169556,6.3810601 7.426617,6.4713989 7.2664256,6.6232555 7.1494602,6.6817385 7.0184882,6.7472244 6.8225225,6.7203988 6.6817385,6.7485558 6.5458342,6.7757367 6.426328,6.7489791 6.3142428,6.6817385 6.1942537,6.6097451 6.0663779,6.5294316 5.9801558,6.4144688 5.8812453,6.2825883 5.8468724,6.1144932 5.7797037,5.9801558 5.7487956,5.9183396 5.6645499,5.8811143 5.6126604,5.8465211 5.4063703,5.7089944 5.183208,5.7176238 4.9444864,5.8131124 4.7178641,5.9037613 4.4900071,6.053897 4.3765386,6.2808341 c -0.056132,0.1122648 -0.066817,0.3094805 -0.066817,0.434313 0,0.1685888 -0.00138,0.3420288 0.066817,0.5011304 0.07573,0.1767044 0.3637865,0.3637865 0.5011304,0.5011304 0.3818983,0.3818982 0.7978505,0.9257829 0.7015824,1.5033911 -0.049433,0.2965974 -0.6638285,1.162787 -0.8018084,1.369756 -0.029841,0.04476 -0.08353,0.08354 -0.100226,0.133635 -0.047838,0.143514 0,0.381413 0,0.534539 0,0.06682 -0.026321,0.139037 0,0.200452 0.07671,0.17899 0.265806,0.35006 0.434313,0.434313 0.7092561,0.354628 1.462277,-0.126443 1.9711128,-0.601356 0.2070341,-0.193232 0.4177067,-0.567948 0.7349911,-0.567948 0.2097998,0 0.2566241,0.02346 0.4677217,0.100226 0.1373537,0.04995 0.1891821,0.01973 0.334087,0.100226 0.1562777,0.08682 0.2574224,0.325345 0.3340867,0.467722 0.1787012,0.331873 0.4195273,0.784954 0.7015827,1.03567 0.2790256,0.248022 0.678932,0.331821 1.035669,0.367495 0.207013,0.0207 0.518591,0.04298 0.701583,-0.06682 0.240938,-0.144563 0.273101,-0.424232 0.334087,-0.668174 0.02712,-0.108485 0.12577,-0.465774 0.100226,-0.567948 -0.07129,-0.285168 -0.225462,-0.534477 -0.400904,-0.7684 -0.08822,-0.117627 -0.129121,-0.276075 -0.200453,-0.400904 -0.01563,-0.02735 -0.04792,-0.04162 -0.06682,-0.06682 -0.104564,-0.139418 -0.192352,-0.4353223 -0.233861,-0.601356 -0.02232,-0.089258 -0.06682,-0.1427747 -0.06682,-0.233861 0,-0.3385521 -0.04751,-0.6669463 0.133635,-0.968852 0.177597,-0.2959947 0.388521,-0.6223821 0.634765,-0.8686258 0.09955,-0.099546 0.427854,-0.3416597 0.467722,-0.5011304 0.01084,-0.043375 0,-0.1891027 0,-0.233861 0,-0.072842 0.01343,-0.1379934 -0.03341,-0.200452 -0.07118,-0.094907 -0.18939,-0.1967648 -0.300678,-0.233861 -0.145916,-0.048638 -0.680116,0.00478 -0.835218,0.066817 -0.101721,0.040689 -0.242729,0.1061382 -0.334087,0.1670437 -0.07987,0.053249 -0.04224,0.077378 -0.133634,0.100226 -0.155451,0.038862 -0.291325,0.066817 -0.467722,0.066817 z" />
</svg>
