<?xml version="1.0" encoding="UTF-8" standalone="no"?>
<svg
   xmlns:dc="http://purl.org/dc/elements/1.1/"
   xmlns:cc="http://creativecommons.org/ns#"
   xmlns:rdf="http://www.w3.org/1999/02/22-rdf-syntax-ns#"
   xmlns:svg="http://www.w3.org/2000/svg"
   xmlns="http://www.w3.org/2000/svg"
   xmlns:sodipodi="http://sodipodi.sourceforge.net/DTD/sodipodi-0.dtd"
   xmlns:inkscape="http://www.inkscape.org/namespaces/inkscape"
   inkscape:version="1.0 (4035a4fb49, 2020-05-01)"
   sodipodi:docname="AddState.svg"
   id="svg4"
   version="1.1"
   width="16"
   viewBox="0 0 16 16"
   height="16">
  <metadata
     id="metadata10">
    <rdf:RDF>
      <cc:Work
         rdf:about="">
        <dc:format>image/svg+xml</dc:format>
        <dc:type
           rdf:resource="http://purl.org/dc/dcmitype/StillImage" />
      </cc:Work>
    </rdf:RDF>
  </metadata>
  <defs
     id="defs8" />
  <sodipodi:namedview
     inkscape:current-layer="layer4"
     inkscape:window-maximized="1"
     inkscape:window-y="-11"
     inkscape:window-x="-11"
     inkscape:cy="7.9043825"
     inkscape:cx="8"
     inkscape:zoom="47.0625"
     showgrid="true"
     id="namedview6"
     inkscape:window-height="1346"
     inkscape:window-width="2160"
     inkscape:pageshadow="2"
     inkscape:pageopacity="0"
     guidetolerance="10"
     gridtolerance="10"
     objecttolerance="10"
     borderopacity="1"
     bordercolor="#666666"
     pagecolor="#ffffff"
     inkscape:document-rotation="0">
    <inkscape:grid
       id="grid839"
       type="xygrid" />
  </sodipodi:namedview>
  <g
     style="display:none"
     sodipodi:insensitive="true"
     inkscape:label="BaseNode"
     id="layer3"
     inkscape:groupmode="layer">
    <path
       style="fill:#e0e0e0;fill-opacity:1"
       d="M 8,2 C 4.6862915,2 2,4.6862915 2,8 c 0,3.313708 2.6862915,6 6,6 3.313708,0 6,-2.686292 6,-6 C 14,4.6862915 11.313708,2 8,2 Z m 4,6 c 0,2.209139 -1.790861,4 -4,4 C 5.790861,12 4,10.209139 4,8 Z"
       fill="#e0e0e0"
       id="path2"
       sodipodi:nodetypes="ssssscscc" />
  </g>
  <g
     style="display:none"
     sodipodi:insensitive="true"
     inkscape:label="Plus"
     id="layer1"
     inkscape:groupmode="layer">
    <rect
       y="7"
       x="9"
       height="8"
       width="4"
       id="rect847"
       style="fill:#0000ff;fill-rule:evenodd" />
    <rect
       y="9"
       x="7"
       height="4"
       width="8"
       id="rect849"
       style="fill:#0000ff;fill-rule:evenodd" />
    <rect
       y="8"
       x="10"
       height="6"
       width="2"
       id="rect842"
       style="fill:#56c2ff;fill-opacity:1;fill-rule:evenodd" />
    <rect
       y="10"
       x="8"
       height="2"
       width="6"
       id="rect844"
       style="fill:#56c2ff;fill-opacity:1;fill-rule:evenodd" />
  </g>
  <g
     inkscape:label="Final"
     id="layer4"
     inkscape:groupmode="layer">
    <path
       id="path884"
       d="m 10.01349,12.998672 -0.0055,-0.99336 -1.0039839,-0.0055 L 8,11.994272 V 11.00664 10.019008 l 1.0039841,-0.0055 1.0039839,-0.0055 0.0055,-1.0039839 L 10.019008,8 h 0.987632 0.987632 l 0.0055,1.0039841 0.0055,1.0039839 0.99336,0.0055 0.99336,0.0055 v 0.987837 0.987838 H 12.99336 11.994688 v 0.998672 0.998672 H 11.00685 10.019013 Z"
       style="fill:#e0e0e0;fill-opacity:1;fill-rule:evenodd;stroke-width:10;paint-order:fill markers stroke;stop-color:#000000" />
    <path
       id="path886"
       d="M 7.4262948,13.970374 C 4.9792676,13.714991 2.9587038,12.054499 2.2555981,9.7211155 2.0804961,9.1400079 2.0187575,8.6913547 2.0187575,8 c 0,-0.5685403 0.015507,-0.7392535 0.1100166,-1.2111554 C 2.6064593,4.4036853 4.5553615,2.5124438 6.9662704,2.0944713 7.7408023,1.960193 8.6306038,1.9859752 9.3827969,2.1644908 11.143016,2.582238 12.62688,3.7812897 13.40952,5.4183267 c 0.276996,0.5793897 0.447053,1.1545606 0.543423,1.8379814 0.03778,0.2679239 0.03362,1.2762444 -0.0064,1.5405046 l -0.02893,0.1912351 -0.451319,0.00573 -0.451319,0.00573 -0.0055,-1.0044061 -0.0055,-1.004406 H 11.00664 9.0092961 l -0.0057,0.504648 L 8.9979028,8 H 6.4983992 3.9988954 l 0.013153,0.2709163 c 0.040616,0.8366118 0.4039207,1.7098746 0.9892718,2.3778827 0.4485368,0.511874 1.0652509,0.920748 1.7177962,1.138879 l 0.2715878,0.09079 v 0.56276 0.56276 l 1.004406,0.0055 1.0044061,0.0055 -0.00573,0.451319 -0.00573,0.451319 -0.1806109,0.02635 c -0.2304102,0.03362 -1.1444184,0.05106 -1.3811421,0.02636 z"
       style="fill:#e0e0e0;fill-opacity:1;fill-rule:evenodd;stroke-width:10;paint-order:fill markers stroke;stop-color:#000000" />
  </g>
</svg>
