<svg width="64" height="64" fill="none" version="1.1" viewBox="0 0 64 64" xmlns="http://www.w3.org/2000/svg">
 <g display="none">
  <path d="m32 63c17.121 0 31-13.879 31-31s-13.879-31-31-31-31 13.879-31 31 13.879 31 31 31zm0-4.2759c14.759 0 26.724-11.965 26.724-26.724s-11.965-26.724-26.724-26.724-26.724 11.965-26.724 26.724 11.965 26.724 26.724 26.724z" clip-rule="evenodd" fill="#fff" fill-rule="evenodd"/>
 </g>
 <path d="m12 12v40h2v-4h2v4h32v-4h2v4h2v-40h-2v4h-2v-4h-32v4h-2v-4h-2zm2 6h2v4h-2v-4zm34 0h2v4h-2v-4zm-12.473 5.043c9.4728 0.041616 9.4727 9.957 9.4727 9.957-0.71915 1.4383-3.1279 2.35-6 2.7539v-8.7539h-11.252c1.3275-2.1154 3.6613-3.9751 7.7793-3.957zm-21.527 0.95703h2v4h-2v-4zm34 0h2v4h-2v-4zm-29 5h3v2h-3v-2zm5 0h3v2h-3v-2zm5 0h3v2h-3v-2zm5 0h3v2h-3v-2zm-20 1h2v4h-2v-4zm34 0h2v4h-2v-4zm-29 2h3 2 3 2 3 2 3v8h-17c-0.554 0-1-0.446-1-1v-7zm-5 4h2v4h-2v-4zm34 0h2v4h-2v-4zm-34 6h2v4h-2v-4zm34 0h2v4h-2v-4z" fill="#fff"/>
</svg>
