<?xml version="1.0" encoding="UTF-8" standalone="no"?>
<svg
   xmlns:dc="http://purl.org/dc/elements/1.1/"
   xmlns:cc="http://creativecommons.org/ns#"
   xmlns:rdf="http://www.w3.org/1999/02/22-rdf-syntax-ns#"
   xmlns:svg="http://www.w3.org/2000/svg"
   xmlns="http://www.w3.org/2000/svg"
   xmlns:sodipodi="http://sodipodi.sourceforge.net/DTD/sodipodi-0.dtd"
   xmlns:inkscape="http://www.inkscape.org/namespaces/inkscape"
   width="64"
   height="64"
   fill="none"
   version="1.1"
   viewBox="0 0 64 64"
   id="svg4"
   sodipodi:docname="icon_sketch.svg"
   inkscape:version="1.0.2-2 (e86c870879, 2021-01-15)">
  <metadata
     id="metadata10">
    <rdf:RDF>
      <cc:Work
         rdf:about="">
        <dc:format>image/svg+xml</dc:format>
        <dc:type
           rdf:resource="http://purl.org/dc/dcmitype/StillImage" />
        <dc:title />
      </cc:Work>
    </rdf:RDF>
  </metadata>
  <defs
     id="defs8" />
  <sodipodi:namedview
     pagecolor="#000000"
     bordercolor="#666666"
     borderopacity="1"
     objecttolerance="10"
     gridtolerance="10"
     guidetolerance="10"
     inkscape:pageopacity="0"
     inkscape:pageshadow="2"
     inkscape:window-width="1440"
     inkscape:window-height="837"
     id="namedview6"
     showgrid="true"
     inkscape:zoom="14.681818"
     inkscape:cx="31.052965"
     inkscape:cy="26.167027"
     inkscape:window-x="-8"
     inkscape:window-y="-8"
     inkscape:window-maximized="1"
     inkscape:current-layer="layer2"
     inkscape:document-rotation="0">
    <inkscape:grid
       type="xygrid"
       id="grid833" />
  </sodipodi:namedview>
  <g
     inkscape:groupmode="layer"
     id="layer1"
     inkscape:label="Circle"
     style="display:inline"
     sodipodi:insensitive="true">
    <path
       fill-rule="evenodd"
       clip-rule="evenodd"
       d="M 31.999997,63 C 49.120797,63 63.000002,49.1208 63.000002,32 63.000002,14.8792 49.120797,1.0000001 31.999997,1.0000001 14.879197,1.0000001 0.9999975,14.8792 0.9999975,32 c 0,17.1208 13.8791995,31 30.9999995,31 z m 0,-4.2759 C 46.759297,58.7241 58.724102,46.7593 58.724102,32 58.724102,17.2407 46.759297,5.2758501 31.999997,5.2758501 17.240697,5.2758501 5.2758775,17.2407 5.2758775,32 c 0,14.7593 11.9648195,26.7241 26.7241195,26.7241 z"
       fill="#ffffff"
       id="path2-0" />
  </g>
  <g
     inkscape:groupmode="layer"
     id="layer2"
     inkscape:label="Content">
    <path
       id="path2"
       style="stroke-width:1;fill:#ffffff;fill-opacity:1"
       d="M 12 12 L 12 52 L 14 52 L 14 48 L 16 48 L 16 52 L 48 52 L 48 48 L 50 48 L 50 52 L 52 52 L 52 12 L 50 12 L 50 16 L 48 16 L 48 12 L 16 12 L 16 16 L 14 16 L 14 12 L 12 12 z M 14 18 L 16 18 L 16 22 L 14 22 L 14 18 z M 27 18 L 27 28 L 29 28 L 29 29 L 27 29 L 27 31 C 27 31.552285 26.552285 32 26 32 C 25.447715 32 25 31.552285 25 31 L 25 29 L 23 29 L 23 28 L 25 28 L 25 20 L 27 18 z M 48 18 L 50 18 L 50 22 L 48 22 L 48 18 z M 40 20 C 46 20 46 26 46 26 C 42 28 38 28 34 26 C 34 26 34 20 40 20 z M 36 22 L 36 25.03125 C 36 25.56793 36.439015 26 36.984375 26 L 37.015625 26 C 37.560985 26 38 25.56797 38 25.03125 L 38 23.140625 L 36 22 z M 42 22 L 40 23.140625 L 40 25.03125 C 40 25.56793 40.439015 26 40.984375 26 L 41.015625 26 C 41.560985 26 42 25.56797 42 25.03125 L 42 22 z M 14 24 L 16 24 L 16 28 L 14 28 L 14 24 z M 48 24 L 50 24 L 50 28 L 48 28 L 48 24 z M 14 30 L 16 30 L 16 34 L 14 34 L 14 30 z M 48 30 L 50 30 L 50 34 L 48 34 L 48 30 z M 28 34 C 35.125 34 36 42 36 42 C 34 46 22 46 20 42 C 20 42 20.875 34 28 34 z M 14 36 L 16 36 L 16 40 L 14 40 L 14 36 z M 48 36 L 50 36 L 50 40 L 48 40 L 48 36 z M 14 42 L 16 42 L 16 46 L 14 46 L 14 42 z M 48 42 L 50 42 L 50 46 L 48 46 L 48 42 z " />
  </g>
</svg>
